<svg xmlns="http://www.w3.org/2000/svg" xmlns:xlink="http://www.w3.org/1999/xlink" version="1.1" x="0px" y="0px" viewBox="0 0 100 125" enable-background="new 0 0 100 100" xml:space="preserve"><path d="M40.4,47.296c0,1.267,1.036,2.304,2.304,2.304h14.592c1.268,0,2.304-1.037,2.304-2.304V32.703  c0-1.267-1.036-2.304-2.304-2.304H42.704c-1.268,0-2.304,1.037-2.304,2.304V47.296z"/><path d="M40.4,67.296c0,1.268,1.036,2.305,2.304,2.305h14.592c1.268,0,2.304-1.037,2.304-2.305V52.704  c0-1.268-1.036-2.305-2.304-2.305H42.704c-1.268,0-2.304,1.037-2.304,2.305V67.296z"/><path d="M60.399,47.296c0,1.267,1.037,2.304,2.305,2.304h14.592c1.268,0,2.304-1.037,2.304-2.304V32.703  c0-1.267-1.036-2.304-2.304-2.304H62.704c-1.268,0-2.305,1.037-2.305,2.304V47.296z"/><path d="M20.4,67.296c0,1.268,1.036,2.304,2.304,2.304h14.592c1.268,0,2.304-1.036,2.304-2.304V52.704  c0-1.268-1.036-2.305-2.304-2.305H22.704c-1.268,0-2.304,1.037-2.304,2.305V67.296z"/><text x="0" y="115" fill="#000000" font-size="5px" font-weight="bold" font-family="'Helvetica Neue', Helvetica, Arial-Unicode, Arial, Sans-serif">Created by Yeong Rong Kim</text><text x="0" y="120" fill="#000000" font-size="5px" font-weight="bold" font-family="'Helvetica Neue', Helvetica, Arial-Unicode, Arial, Sans-serif">from the Noun Project</text></svg>