<svg xmlns="http://www.w3.org/2000/svg" xmlns:xlink="http://www.w3.org/1999/xlink" version="1.1" x="0px" y="0px" viewBox="0 0 100 125" enable-background="new 0 0 100 100" xml:space="preserve"><path d="M40.4,52.704c0-1.268,1.036-2.305,2.304-2.305l14.592,0c1.268,0,2.304,1.037,2.304,2.304v14.593  c0,1.267-1.036,2.304-2.304,2.304H42.704c-1.268,0-2.304-1.037-2.304-2.304V52.704z"/><path d="M40.4,32.703c0-1.268,1.036-2.305,2.304-2.305h14.592c1.268,0,2.304,1.037,2.304,2.305v14.592  c0,1.268-1.036,2.305-2.304,2.305l-14.592,0c-1.268,0-2.304-1.037-2.304-2.305V32.703z"/><path d="M60.399,32.704c0-1.268,1.037-2.305,2.305-2.305h14.592c1.268,0,2.304,1.038,2.304,2.305v14.592  c0,1.268-1.036,2.304-2.304,2.304H62.704c-1.268,0-2.305-1.036-2.305-2.304V32.704z"/><path d="M20.4,32.703c0-1.268,1.036-2.305,2.304-2.305h14.592c1.268,0,2.304,1.037,2.304,2.305v14.592  c0,1.268-1.036,2.304-2.304,2.304H22.704c-1.268,0-2.304-1.037-2.304-2.304V32.703z"/><text x="0" y="115" fill="#000000" font-size="5px" font-weight="bold" font-family="'Helvetica Neue', Helvetica, Arial-Unicode, Arial, Sans-serif">Created by Yeong Rong Kim</text><text x="0" y="120" fill="#000000" font-size="5px" font-weight="bold" font-family="'Helvetica Neue', Helvetica, Arial-Unicode, Arial, Sans-serif">from the Noun Project</text></svg>