<svg xmlns="http://www.w3.org/2000/svg" xmlns:xlink="http://www.w3.org/1999/xlink" version="1.1" x="0px" y="0px" viewBox="0 0 100 125" enable-background="new 0 0 100 100" xml:space="preserve"><path d="M47.295,40.401c1.268,0,2.305,1.036,2.305,2.304l0,14.592c0,1.268-1.037,2.304-2.304,2.304H32.703  c-1.267,0-2.304-1.036-2.304-2.304V42.705c0-1.268,1.037-2.304,2.304-2.304H47.295z"/><path d="M67.297,40.401c1.268,0,2.305,1.036,2.305,2.304v14.592c0,1.268-1.037,2.304-2.306,2.304H52.704  c-1.268,0-2.305-1.036-2.305-2.304l0-14.592c0-1.268,1.038-2.304,2.305-2.304H67.297z"/><path d="M67.296,60.4c1.269,0,2.306,1.037,2.306,2.305v14.592c-0.001,1.268-1.038,2.304-2.306,2.304H52.704  c-1.268,0-2.304-1.036-2.304-2.304V62.705c0-1.268,1.036-2.305,2.304-2.305H67.296z"/><path d="M67.297,20.401c1.268,0,2.305,1.036,2.305,2.304v14.592c0,1.268-1.037,2.304-2.305,2.304H52.705  c-1.268,0-2.305-1.036-2.305-2.304V22.705c0-1.268,1.037-2.304,2.305-2.304H67.297z"/><text x="0" y="115" fill="#000000" font-size="5px" font-weight="bold" font-family="'Helvetica Neue', Helvetica, Arial-Unicode, Arial, Sans-serif">Created by Yeong Rong Kim</text><text x="0" y="120" fill="#000000" font-size="5px" font-weight="bold" font-family="'Helvetica Neue', Helvetica, Arial-Unicode, Arial, Sans-serif">from the Noun Project</text></svg>